# xmcd CD database file
#
# Track frame offsets:
#	150
#	15594
#	31290
#	52067
#	70514
#	87022
#
# Disc length: 1462 seconds
#
# Revision: 3
# Processed by: cddbd v1.5.1PL0 Copyright (c) Steve Scherf et al.
# Submitted via: CDex 1.51
#
DISCID=3f05b406
DTITLE=UNITED GARDEN - WELCOME TO MY GARDEN
DYEAR=2004
DGENRE=Pop
TTITLE0=鼓動
TTITLE1=BLUES
TTITLE2=愛の蜜
TTITLE3=天使の羽根
TTITLE4=花咲く森
TTITLE5=ROLLING WORLD
EXTD=YEAR: 2004.5.25
EXTT0=
EXTT1=
EXTT2=
EXTT3=
EXTT4=
EXTT5=
PLAYORDER=
